<?xml version="1.0" encoding="UTF-8" standalone="no"?><!DOCTYPE svg PUBLIC "-//W3C//DTD SVG 1.1//EN" "http://www.w3.org/Graphics/SVG/1.1/DTD/svg11.dtd"><svg width="100%" height="100%" viewBox="0 0 1779 391" version="1.1" xmlns="http://www.w3.org/2000/svg" xmlns:xlink="http://www.w3.org/1999/xlink" xml:space="preserve" xmlns:serif="http://www.serif.com/" style="fill-rule:evenodd;clip-rule:evenodd;stroke-linejoin:round;stroke-miterlimit:2;"><g transform="matrix(1,0,0,1,-351.032,-1558.54)"><g transform="matrix(1.55496,0,0,1.55496,-1520.76,1045.01)"><path d="M1400.71,401.57L1400.71,452.173C1400.71,452.458 1400.48,452.689 1400.2,452.689L1349.59,452.689C1349.31,452.689 1349.08,452.458 1349.08,452.173L1349.08,401.57C1349.08,401.285 1349.31,401.053 1349.59,401.053L1400.2,401.053C1400.48,401.053 1400.71,401.285 1400.71,401.57ZM1400.71,458.731L1400.71,509.334C1400.71,509.619 1400.48,509.851 1400.2,509.851L1349.59,509.851C1349.31,509.851 1349.08,509.619 1349.08,509.334L1349.08,458.731C1349.08,458.446 1349.31,458.215 1349.59,458.215L1400.2,458.215C1400.48,458.215 1400.71,458.446 1400.71,458.731ZM1343.55,458.731L1343.55,509.334C1343.55,509.619 1343.32,509.851 1343.04,509.851L1292.43,509.851C1292.15,509.851 1291.92,509.619 1291.92,509.334L1291.92,458.731C1291.92,458.446 1292.15,458.215 1292.43,458.215L1343.04,458.215C1343.32,458.215 1343.55,458.446 1343.55,458.731ZM1400.71,515.892L1400.71,566.496C1400.71,566.781 1400.48,567.012 1400.2,567.012L1349.59,567.012C1349.31,567.012 1349.08,566.781 1349.08,566.496L1349.08,515.892C1349.08,515.607 1349.31,515.376 1349.59,515.376L1400.2,515.376C1400.48,515.376 1400.71,515.607 1400.71,515.892ZM1338.23,534.1C1338.23,534.278 1338.1,534.427 1337.92,534.442C1271.48,540.184 1256.57,485.34 1203.75,484.033C1229.43,471.634 1258.92,472.698 1280.91,486.147C1281.01,486.21 1281.07,486.32 1281.07,486.44L1281.07,520.35C1281.07,520.441 1281.11,520.529 1281.17,520.593C1281.24,520.658 1281.33,520.694 1281.42,520.694L1337.89,520.694C1338.08,520.694 1338.23,520.849 1338.23,521.039L1338.23,534.1ZM1281.07,467.705C1281.07,467.831 1281,467.947 1280.89,468.007C1280.78,468.068 1280.65,468.063 1280.54,467.995C1258.8,453.923 1242.32,430.088 1241.84,401.879C1257.06,417.652 1271.56,432.695 1299.51,446.719C1299.65,446.791 1299.73,446.951 1299.69,447.107C1299.65,447.261 1299.51,447.371 1299.35,447.371L1281.42,447.371C1281.33,447.371 1281.24,447.407 1281.17,447.472C1281.11,447.536 1281.07,447.624 1281.07,447.716L1281.07,467.705ZM1338.23,444.785C1338.23,444.89 1338.19,444.988 1338.11,445.054C1338.02,445.119 1337.92,445.144 1337.82,445.121C1254.12,426.697 1277.37,381.997 1227.55,350.161C1271.17,350.25 1288.57,365.342 1300.84,383.263C1311.4,398.692 1314.72,414.559 1338.08,429.911C1338.18,429.975 1338.23,430.083 1338.23,430.199L1338.23,444.785ZM1338.23,402.538C1338.23,402.668 1338.16,402.788 1338.04,402.846C1337.93,402.904 1337.79,402.891 1337.68,402.812C1309.2,381.169 1307.26,351.604 1317.73,330.25C1328.35,363.604 1351.06,381.946 1374.62,390.196C1374.64,390.204 1374.65,390.227 1374.65,390.251C1374.65,390.274 1374.63,390.291 1374.6,390.291C1371.35,390.284 1342.09,390.219 1338.58,390.21C1338.49,390.21 1338.4,390.246 1338.34,390.311C1338.27,390.376 1338.23,390.463 1338.23,390.555L1338.23,402.538ZM1374.55,577.855C1374.74,577.855 1374.9,578.01 1374.9,578.2L1374.9,580.914C1374.9,581.097 1374.75,581.249 1374.57,581.258C1309.95,584.3 1255.4,565.393 1242.17,520.683C1274.88,541.793 1305.07,549.597 1337.9,550.739C1338.09,550.745 1338.23,550.897 1338.23,551.082L1338.23,577.512C1338.23,577.702 1338.39,577.855 1338.58,577.855L1374.55,577.855ZM1478.94,454.199L1458.68,454.199L1458.68,354.337L1478.94,354.337L1478.94,454.199ZM1521.17,454.199L1502.62,454.199L1502.62,379.445L1513.32,379.445L1518.75,386.864C1524.93,380.777 1532.3,377.733 1540.86,377.733C1548.94,377.733 1555.29,380.301 1559.9,385.437C1564.52,390.573 1566.82,397.658 1566.82,406.693L1566.82,454.199L1548.28,454.199L1548.28,407.835C1548.28,403.555 1547.23,400.274 1545.14,397.991C1543.05,395.709 1540.24,394.567 1536.72,394.567C1531.01,394.567 1525.83,397.183 1521.17,402.414L1521.17,454.199ZM1608.62,454.199L1590.08,454.199L1590.08,395.566L1579.09,395.566L1579.09,379.445L1590.08,379.445C1590.08,372.122 1592.45,365.94 1597.21,360.899C1601.96,355.859 1609.38,353.338 1619.46,353.338C1620.03,353.338 1621.84,353.434 1624.88,353.624L1624.88,370.172L1621.89,370.172C1617.32,370.172 1614.04,370.862 1612.05,372.241C1610.05,373.62 1608.91,376.021 1608.62,379.445L1623.74,379.445L1623.74,395.566L1608.62,395.566L1608.62,454.199ZM1667.83,455.911C1657.84,455.911 1649.92,453.486 1644.07,448.636C1638.22,443.785 1635.3,437.08 1635.3,428.52L1635.3,405.409C1635.3,397.04 1638.25,390.335 1644.14,385.294C1650.23,380.254 1658.12,377.733 1667.83,377.733C1677.34,377.733 1684.9,380.159 1690.51,385.009C1696.12,389.859 1698.93,396.565 1698.93,405.124L1698.93,422.957L1653.85,422.957L1653.85,428.235C1653.85,431.659 1655.06,434.322 1657.48,436.224C1659.91,438.126 1663.36,439.077 1667.83,439.077C1674.77,439.077 1678.91,436.557 1680.24,431.516L1698.78,431.516C1698.02,439.22 1694.95,445.212 1689.58,449.492C1684.21,453.771 1676.96,455.911 1667.83,455.911ZM1653.85,405.124L1653.85,408.833L1680.38,408.833L1680.38,405.124C1680.38,401.891 1679.22,399.323 1676.88,397.421C1674.55,395.518 1671.3,394.567 1667.11,394.567C1662.93,394.567 1659.67,395.518 1657.34,397.421C1655.01,399.323 1653.85,401.891 1653.85,405.124ZM1736.44,454.199L1717.9,454.199L1717.9,379.445L1728.6,379.445L1734.02,386.864C1739.25,380.777 1745.72,377.733 1753.42,377.733L1757.27,377.733L1757.27,395.566L1753.42,395.566C1745.91,395.566 1740.25,397.848 1736.44,402.414L1736.44,454.199ZM1790.94,454.199L1772.4,454.199L1772.4,379.445L1783.1,379.445L1788.52,386.864C1794.7,380.777 1802.07,377.733 1810.63,377.733C1818.71,377.733 1825.06,380.301 1829.67,385.437C1834.29,390.573 1836.59,397.658 1836.59,406.693L1836.59,454.199L1818.05,454.199L1818.05,407.835C1818.05,403.555 1817,400.274 1814.91,397.991C1812.82,395.709 1810.01,394.567 1806.49,394.567C1800.79,394.567 1795.6,397.183 1790.94,402.414L1790.94,454.199ZM1887.38,455.911C1877.11,455.911 1869.12,453.391 1863.41,448.35C1857.71,443.31 1854.85,436.605 1854.85,428.235L1854.85,405.409C1854.85,397.04 1857.71,390.335 1863.41,385.294C1869.12,380.254 1877.11,377.733 1887.38,377.733C1897.56,377.733 1905.5,380.254 1911.2,385.294C1916.91,390.335 1919.76,397.04 1919.76,405.409L1919.76,428.235C1919.76,436.605 1916.91,443.31 1911.2,448.35C1905.5,453.391 1897.56,455.911 1887.38,455.911ZM1887.38,439.077C1891.76,439.077 1895.15,438.007 1897.58,435.867C1900.01,433.728 1901.22,430.898 1901.22,427.379L1901.22,406.265C1901.22,402.746 1900.01,399.917 1897.58,397.777C1895.15,395.637 1891.76,394.567 1887.38,394.567C1882.91,394.567 1879.46,395.661 1877.04,397.848C1874.61,400.036 1873.4,402.842 1873.4,406.265L1873.4,427.379C1873.4,430.803 1874.61,433.609 1877.04,435.796C1879.46,437.984 1882.91,439.077 1887.38,439.077ZM1489.44,566.907C1479.72,566.907 1472.17,564.363 1466.78,559.276C1461.38,554.188 1458.68,547.093 1458.68,537.989L1458.68,512.054C1458.68,502.95 1461.38,495.854 1466.78,490.767C1472.17,485.679 1479.72,483.136 1489.44,483.136C1497.78,483.136 1504.74,485.469 1510.33,490.136C1515.91,494.802 1518.7,501.573 1518.7,510.447L1518.7,511.595L1508.72,511.595L1508.72,510.447C1508.72,504.557 1506.77,500.081 1502.87,497.021C1499.04,493.884 1494.53,492.316 1489.33,492.316C1482.67,492.316 1477.56,493.98 1474.01,497.308C1470.45,500.636 1468.67,505.322 1468.67,511.365L1468.67,538.677C1468.67,544.721 1470.45,549.407 1474.01,552.735C1477.56,556.063 1482.67,557.727 1489.33,557.727C1494.53,557.727 1499.04,556.158 1502.87,553.022C1506.77,549.962 1508.72,545.486 1508.72,539.595L1508.72,538.448L1518.7,538.448L1518.7,539.595C1518.7,548.47 1515.91,555.24 1510.33,559.907C1504.74,564.574 1497.78,566.907 1489.44,566.907ZM1533.97,544.645L1533.97,526.743C1533.97,520.163 1536.13,514.866 1540.45,510.849C1544.77,506.833 1550.8,504.824 1558.52,504.824C1566.25,504.824 1572.26,506.814 1576.54,510.792C1580.82,514.77 1582.97,520.087 1582.97,526.743L1582.97,544.645C1582.97,551.3 1580.82,556.617 1576.54,560.596C1572.26,564.574 1566.25,566.563 1558.52,566.563C1550.8,566.563 1544.77,564.555 1540.45,560.538C1536.13,556.522 1533.97,551.224 1533.97,544.645ZM1558.52,558.186C1563.42,558.186 1567.19,556.923 1569.83,554.399C1572.47,551.874 1573.79,548.508 1573.79,544.3L1573.79,527.087C1573.79,522.879 1572.47,519.513 1569.83,516.989C1567.19,514.464 1563.42,513.202 1558.52,513.202C1553.7,513.202 1549.93,514.483 1547.22,517.046C1544.5,519.609 1543.14,522.956 1543.14,527.087L1543.14,544.3C1543.14,548.431 1544.5,551.779 1547.22,554.341C1549.93,556.904 1553.7,558.186 1558.52,558.186ZM1609.7,565.186L1600.52,565.186L1600.52,506.202L1606.03,506.202L1609.24,514.005C1614.68,507.885 1620.84,504.824 1627.72,504.824C1635.83,504.824 1641.34,508.344 1644.25,515.382C1650.14,508.344 1656.91,504.824 1664.56,504.824C1670.52,504.824 1675.15,506.661 1678.44,510.333C1681.73,514.005 1683.38,519.245 1683.38,526.054L1683.38,565.186L1674.2,565.186L1674.2,527.087C1674.2,522.573 1673.12,519.131 1670.98,516.759C1668.84,514.387 1665.97,513.202 1662.38,513.202C1656.87,513.202 1651.51,516.376 1646.31,522.726C1646.46,525.021 1646.54,527.546 1646.54,530.3L1646.54,565.186L1637.36,565.186L1637.36,527.087C1637.36,522.573 1636.29,519.131 1634.15,516.759C1632,514.387 1629.13,513.202 1625.54,513.202C1619.8,513.202 1614.52,516.3 1609.7,522.497L1609.7,565.186ZM1712.07,565.186L1702.88,565.186L1702.88,506.202L1708.39,506.202L1711.61,514.005C1717.04,507.885 1723.2,504.824 1730.08,504.824C1738.19,504.824 1743.7,508.344 1746.61,515.382C1752.5,508.344 1759.27,504.824 1766.92,504.824C1772.89,504.824 1777.51,506.661 1780.8,510.333C1784.09,514.005 1785.74,519.245 1785.74,526.054L1785.74,565.186L1776.56,565.186L1776.56,527.087C1776.56,522.573 1775.49,519.131 1773.35,516.759C1771.2,514.387 1768.33,513.202 1764.74,513.202C1759.23,513.202 1753.87,516.376 1748.67,522.726C1748.83,525.021 1748.9,527.546 1748.9,530.3L1748.9,565.186L1739.72,565.186L1739.72,527.087C1739.72,522.573 1738.65,519.131 1736.51,516.759C1734.37,514.387 1731.5,513.202 1727.9,513.202C1722.16,513.202 1716.88,516.3 1712.07,522.497L1712.07,565.186ZM1843.8,506.202L1852.99,506.202L1852.99,565.186L1847.48,565.186L1844.15,557.382C1838.95,563.503 1832.52,566.563 1824.87,566.563C1818.75,566.563 1813.85,564.593 1810.18,560.653C1806.51,556.713 1804.67,551.3 1804.67,544.415L1804.67,506.202L1813.85,506.202L1813.85,543.382C1813.85,548.125 1815,551.779 1817.3,554.341C1819.59,556.904 1822.73,558.186 1826.71,558.186C1832.98,558.186 1838.68,555.087 1843.8,548.891L1843.8,506.202ZM1882.36,565.186L1873.18,565.186L1873.18,506.202L1878.69,506.202L1881.9,514.005C1887.34,507.885 1893.8,504.824 1901.3,504.824C1907.49,504.824 1912.45,506.794 1916.16,510.734C1919.87,514.674 1921.72,520.087 1921.72,526.972L1921.72,565.186L1912.54,565.186L1912.54,528.005C1912.54,523.262 1911.36,519.609 1908.99,517.046C1906.61,514.483 1903.44,513.202 1899.46,513.202C1893.26,513.202 1887.56,516.3 1882.36,522.497L1882.36,565.186ZM1950.41,565.186L1941.23,565.186L1941.23,506.202L1950.41,506.202L1950.41,565.186ZM1950.41,496.906L1941.23,496.906L1941.23,484.283L1950.41,484.283L1950.41,496.906ZM1992.07,566.563C1984.57,566.563 1978.68,564.593 1974.4,560.653C1970.11,556.713 1967.97,551.377 1967.97,544.645L1967.97,526.743C1967.97,520.01 1970.11,514.674 1974.4,510.734C1978.68,506.794 1984.57,504.824 1992.07,504.824C1999.34,504.824 2005.11,506.718 2009.4,510.505C2013.68,514.292 2015.82,519.437 2015.82,525.939L2015.82,526.513L2006.64,526.513L2006.64,525.825C2006.64,522.076 2005.34,519.035 2002.74,516.702C2000.14,514.368 1996.58,513.202 1992.07,513.202C1987.33,513.202 1983.65,514.387 1981.05,516.759C1978.45,519.131 1977.15,522.382 1977.15,526.513L1977.15,544.874C1977.15,549.005 1978.45,552.257 1981.05,554.628C1983.65,557 1987.33,558.186 1992.07,558.186C1996.58,558.186 2000.14,557.019 2002.74,554.686C2005.34,552.352 2006.64,549.235 2006.64,545.333L2006.64,544.53L2015.82,544.53L2015.82,545.218C2015.82,551.645 2013.66,556.809 2009.34,560.71C2005.02,564.612 1999.26,566.563 1992.07,566.563ZM2048.41,566.563C2042.67,566.563 2037.99,565.052 2034.36,562.03C2030.72,559.008 2028.9,554.82 2028.9,549.464C2028.9,543.42 2030.99,538.773 2035.16,535.522C2039.33,532.27 2045.39,530.644 2053.35,530.644L2068.15,530.644L2068.15,524.792C2068.15,521.12 2066.99,518.27 2064.65,516.243C2062.32,514.215 2058.93,513.202 2054.49,513.202C2050.21,513.202 2046.88,514.196 2044.51,516.185C2042.14,518.174 2040.95,520.814 2040.95,524.103L2032,524.103C2032,518.213 2033.95,513.527 2037.86,510.046C2041.76,506.565 2047.3,504.824 2054.49,504.824C2061.76,504.824 2067.39,506.584 2071.36,510.103C2075.34,513.622 2077.33,518.327 2077.33,524.218L2077.33,565.186L2071.82,565.186L2068.38,557.727C2066.16,560.251 2063.27,562.355 2059.72,564.038C2056.16,565.721 2052.39,566.563 2048.41,566.563ZM2050.25,558.186C2056.68,558.186 2062.64,555.432 2068.15,549.923L2068.15,538.103L2053.35,538.103C2043.17,538.103 2038.09,541.546 2038.09,548.431C2038.09,551.568 2039.17,553.978 2041.36,555.661C2043.54,557.344 2046.5,558.186 2050.25,558.186ZM2123.92,565.186L2118.41,565.186C2111.61,565.186 2106.75,563.388 2103.84,559.792C2101.01,556.197 2099.59,551.606 2099.59,546.022L2099.59,514.234L2089.95,514.234L2089.95,506.202L2099.59,506.202L2099.59,493.923L2108.78,493.923L2108.78,506.202L2123.92,506.202L2123.92,514.234L2108.78,514.234L2108.78,545.792C2108.78,553.136 2111.99,556.809 2118.41,556.809L2123.92,556.809L2123.92,565.186ZM2149.28,565.186L2140.1,565.186L2140.1,506.202L2149.28,506.202L2149.28,565.186ZM2149.28,496.906L2140.1,496.906L2140.1,484.283L2149.28,484.283L2149.28,496.906ZM2166.84,544.645L2166.84,526.743C2166.84,520.163 2169,514.866 2173.32,510.849C2177.65,506.833 2183.67,504.824 2191.4,504.824C2199.12,504.824 2205.13,506.814 2209.41,510.792C2213.7,514.77 2215.84,520.087 2215.84,526.743L2215.84,544.645C2215.84,551.3 2213.7,556.617 2209.41,560.596C2205.13,564.574 2199.12,566.563 2191.4,566.563C2183.67,566.563 2177.65,564.555 2173.32,560.538C2169,556.522 2166.84,551.224 2166.84,544.645ZM2191.4,558.186C2196.3,558.186 2200.06,556.923 2202.7,554.399C2205.34,551.874 2206.66,548.508 2206.66,544.3L2206.66,527.087C2206.66,522.879 2205.34,519.513 2202.7,516.989C2200.06,514.464 2196.3,513.202 2191.4,513.202C2186.58,513.202 2182.81,514.483 2180.1,517.046C2177.38,519.609 2176.02,522.956 2176.02,527.087L2176.02,544.3C2176.02,548.431 2177.38,551.779 2180.1,554.341C2182.81,556.904 2186.58,558.186 2191.4,558.186ZM2242.58,565.186L2233.4,565.186L2233.4,506.202L2238.91,506.202L2242.12,514.005C2247.55,507.885 2254.02,504.824 2261.51,504.824C2267.71,504.824 2272.66,506.794 2276.38,510.734C2280.09,514.674 2281.94,520.087 2281.94,526.972L2281.94,565.186L2272.76,565.186L2272.76,528.005C2272.76,523.262 2271.57,519.609 2269.2,517.046C2266.83,514.483 2263.66,513.202 2259.68,513.202C2253.48,513.202 2247.78,516.3 2242.58,522.497L2242.58,565.186ZM2323.71,566.563C2315.99,566.563 2309.77,564.688 2305.06,560.94C2300.36,557.191 2298.01,551.951 2298.01,545.218L2307.19,545.218C2307.19,549.273 2308.79,552.448 2312.01,554.743C2315.22,557.038 2319.35,558.186 2324.4,558.186C2328.53,558.186 2331.86,557.344 2334.38,555.661C2336.91,553.978 2338.17,551.836 2338.17,549.235C2338.17,547.169 2337.46,545.505 2336.05,544.243C2334.63,542.981 2332.28,541.929 2328.99,541.087L2314.42,537.3C2309.67,536.076 2306.14,534.297 2303.8,531.964C2301.47,529.631 2300.3,526.36 2300.3,522.153C2300.3,516.95 2302.37,512.762 2306.5,509.587C2310.63,506.412 2316.18,504.824 2323.14,504.824C2330.41,504.824 2336.11,506.603 2340.24,510.161C2344.37,513.718 2346.43,518.863 2346.43,525.595L2337.25,525.595C2337.25,521.617 2335.91,518.557 2333.24,516.415C2330.56,514.273 2326.96,513.202 2322.45,513.202C2318.39,513.202 2315.22,513.986 2312.92,515.554C2310.63,517.122 2309.48,519.131 2309.48,521.579C2309.48,523.644 2310.11,525.251 2311.38,526.398C2312.64,527.546 2314.8,528.541 2317.86,529.382L2332.2,532.94C2337.33,534.164 2341.14,536 2343.62,538.448C2346.11,540.896 2347.35,544.262 2347.35,548.546C2347.35,554.054 2345.23,558.434 2340.98,561.686C2336.74,564.937 2330.98,566.563 2323.71,566.563Z" style="fill:white;"/></g></g></svg>